<?xml version="1.0" encoding="UTF-8" standalone="no"?>
<svg
   width="249pt"
   height="250pt"
   version="1.1"
   viewBox="0 0 249 250"
   id="svg10"
   sodipodi:docname="Olvid.svgz"
   xmlns:inkscape="http://www.inkscape.org/namespaces/inkscape"
   xmlns:sodipodi="http://sodipodi.sourceforge.net/DTD/sodipodi-0.dtd"
   xmlns="http://www.w3.org/2000/svg"
   xmlns:svg="http://www.w3.org/2000/svg">
  <defs
     id="defs14" />
  <sodipodi:namedview
     id="namedview12"
     pagecolor="#ffffff"
     bordercolor="#000000"
     borderopacity="0.25"
     inkscape:showpageshadow="2"
     inkscape:pageopacity="0.0"
     inkscape:pagecheckerboard="0"
     inkscape:deskcolor="#d1d1d1"
     inkscape:document-units="pt" />
  <g
     id="#1754deff"
     fill="#1754de">
    <path
       d="m19.51 19.49c12.13-12.22 29.26-19.13 46.47-18.95 39-0.04 78.01-0.04 117.02 0 13.61-0.04 27.23 4.17 38.27 12.17 13.03 9.29 22.42 23.53 25.76 39.18 1.26 5.25 1.25 10.69 1.97 16.03v110.42c-0.35 11.82-1.64 23.97-7.16 34.63-10.27 21.47-33.07 36.18-56.9 36.46-38.62 0.16-77.25 0.02-115.88 0.07-7.07 0.08-14.2-0.45-21.03-2.4-17.98-4.86-33.47-17.93-41.41-34.77-4.36-8.8-6.06-18.6-6.62-28.33v-117.92c0.39-17.26 7.06-34.47 19.51-46.59m100.81 20.92c-21.25 0.86-42.14 9.7-57.37 24.58-14.99 14.59-24.02 35.1-24.62 56.02-0.76 16.78 3.58 33.77 12.61 47.96 12.54 20.26 34.32 34.06 57.64 38.21 18.35 3.15 37.76 1.13 54.67-6.86 17.05-7.76 31.49-21.31 39.82-38.14 8.82-17.17 10.93-37.43 6.9-56.23-4.32-19.69-16.15-37.64-32.65-49.25-16.4-11.77-36.88-17.45-57-16.29z"
       id="path2" />
    <path
       d="m93.69 88.74c16.52-15.89 45.3-16.11 62.14-0.61 11.55 10.41 16.5 26.73 14.87 41.95-1.22 14.79-9.88 28.26-21.55 37.12-11.56 8.74-25.82 13.17-40.07 14.97-10.69 1.42-21.64 1.65-32.27-0.33 9.09-3.51 18.58-7.79 24.57-15.81-11.73-7.03-19.61-19.65-21.54-33.11-2.47-15.76 2.03-33.07 13.85-44.18z"
       id="path4" />
  </g>
  <g
     id="#ffffffff">
    <path
       d="m120.32 40.41c20.12-1.16 40.6 4.52 57 16.29 16.5 11.61 28.33 29.56 32.65 49.25 4.03 18.8 1.92 39.06-6.9 56.23-8.33 16.83-22.77 30.38-39.82 38.14-16.91 7.99-36.32 10.01-54.67 6.86-23.32-4.15-45.1-17.95-57.64-38.21-9.03-14.19-13.37-31.18-12.61-47.96 0.6-20.92 9.63-41.43 24.62-56.02 15.23-14.88 36.12-23.72 57.37-24.58m-26.63 48.33c-11.82 11.11-16.32 28.42-13.85 44.18 1.93 13.46 9.81 26.08 21.54 33.11-5.99 8.02-15.48 12.3-24.57 15.81 10.63 1.98 21.58 1.75 32.27 0.33 14.25-1.8 28.51-6.23 40.07-14.97 11.67-8.86 20.33-22.33 21.55-37.12 1.63-15.22-3.32-31.54-14.87-41.95-16.84-15.5-45.62-15.28-62.14 0.61z"
       fill="#fff"
       id="path7" />
  </g>
</svg>
